<?xml version="1.0" encoding="UTF-8"?>
<svg id="Layer_1" data-name="Layer 1" xmlns="http://www.w3.org/2000/svg" viewBox="0 0 1666.69 1441.2">
  <defs>
    <style>
      .cls-1, .cls-2, .cls-3 {
        stroke-miterlimit: 10;
      }

      .cls-1, .cls-3 {
        stroke: #000;
      }

      .cls-4 {
        fill-rule: evenodd;
      }

      .cls-4, .cls-5 {
        fill: #ffd400;
      }

      .cls-2 {
        stroke: #fff;
        stroke-width: 5px;
      }

      .cls-6 {
        fill: #001489;
      }

      .cls-3 {
        fill: #fff;
      }
    </style>
  </defs>
  <path class="cls-1" d="m1439.1,720.6c0-116.85-33.02-226-90.23-318.6l57.51-115.89c-40.08-52.89-87.3-100.09-140.23-140.13h0s-115.04,58.1-115.04,58.1c-54.51-33.74-114.76-59.1-178.95-74.26l-41.21-122.58c-32.32-4.45-65.33-6.74-98.87-6.74s-67.21,2.34-99.84,6.87l-40.44,122.5c-63.96,15.13-124,40.38-178.35,73.96l-115.47-57.82c-52.96,40.07-100.22,87.3-140.31,140.25l57.91,115.27h.01c-57.4,92.7-90.53,202.02-90.53,319.07s33.04,226.06,90.28,318.68l-57.67,115.67c40.09,52.93,87.33,100.15,140.27,140.21l114.63-58.34c54.55,33.84,114.87,59.27,179.13,74.49l40.9,122.57c32.51,4.5,65.73,6.82,99.48,6.82s66.45-2.29,98.73-6.72l41.41-122.62c64.04-15.13,124.16-40.41,178.57-74.05h.01s115.34,57.92,115.34,57.92c52.97-40.08,100.23-87.31,140.33-140.26l-57.5-115.94c57.15-92.57,90.13-201.65,90.13-318.43Zm-607.02,410.01c-226.44,0-410.01-183.57-410.01-410.01s183.57-410.01,410.01-410.01,410.01,183.57,410.01,410.01-183.57,410.01-410.01,410.01Z"/>
  <g id="BINARY">
    <path class="cls-3" d="m492.62,428.41l-11.03-11.86,6.15-5.72-62.8-67.5-6.15,5.72-11.04-11.86,55.06-51.22,26,.94,19.62,21.09-.64,17.81,17.81.64,23.02,24.75-.94,26-55.06,51.22Zm-4.34-95.4l.58-12.29-12.53-13.47-12.3-.3-22.26,20.71,24.25,26.06,22.26-20.71Zm38.55,41.44l.72-12.14-15.94-17.13-12.44-.45-22.26,20.71,27.66,29.72,22.26-20.71Z"/>
    <path class="cls-3" d="m602.39,338.68l-7.73-14.23,7.38-4.01-44.02-81.02-7.38,4.01-7.73-14.23,34.97-19,7.73,14.23-7.38,4.01,44.02,81.02,7.38-4.01,7.73,14.23-34.97,19Z"/>
    <path class="cls-3" d="m675.33,299.82l-3.64-15.78,8.19-1.89-20.74-89.84-8.18,1.89-3.64-15.78,31.38-7.24,69.86,72.34-15.74-68.21-8.19,1.89-3.64-15.79,38.78-8.95,3.64,15.78-8.18,1.89,20.74,89.84,8.19-1.89,3.64,15.79-32.35,7.47-68.48-70.81,15.34,66.45,8.18-1.89,3.64,15.78-38.78,8.95Z"/>
    <path class="cls-3" d="m831.37,271.86l2.01-16.08,5.95.74,41.97-87.68-8.93-1.11,2-16.08,58.55,7.3-2,16.08-9.72-1.21,18.95,95.28,6.15.77-2,16.08-38.11-4.75,2.01-16.08,7.74.97-4.64-22.55-37.91-4.73-9.84,20.74,7.74.97-2.01,16.08-37.91-4.73Zm77.56-40.11l-9.42-47.33-20.75,43.57,30.17,3.76Z"/>
    <path class="cls-3" d="m985.96,299.64l7.27-14.48,7.51,3.77,41.37-82.4-7.51-3.77,7.27-14.48,67.21,33.74,8.19,24.7-12.92,25.74-16.91,5.61,5.61,16.91-16.15,32.17,7.51,3.77-7.27,14.48-28.06-14.09,21.54-42.9-3.92-11.81-27.17-13.64-18.22,36.28,7.51,3.77-7.27,14.48-35.57-17.86Zm87.89-37.33l11.72-3.74,8.26-16.44-4.01-11.63-27.17-13.64-15.97,31.82,27.17,13.64Z"/>
    <path class="cls-3" d="m1160.34,270.57l10.95-11.94,37.6,34.46-10.95,11.94-9.14-8.38-3.1,39.49,38.77-6.78-8.99-8.24,10.95-11.94,36.27,33.25-10.95,11.94-5.01-4.59-65.07,7.64-28.79,31.4,6.19,5.68-11.89,12.97-29.19-26.76,11.89-12.97,6.04,5.54,28.79-31.4,2.11-65.35-6.49-5.95Z"/>
  </g>
  <path id="L_STAR" class="cls-2" d="m316.72,449.35l47.36,7.78c1.37.23,2.73-.46,3.37-1.69l22.04-42.63c1.43-2.76,5.55-2.08,6.02.99l7.23,47.45c.21,1.37,1.28,2.46,2.65,2.68l47.36,7.78c3.06.5,3.69,4.63.92,6.03l-42.89,21.54c-1.24.62-1.94,1.97-1.73,3.35l7.23,47.45c.47,3.07-3.27,4.95-5.45,2.74l-33.74-34.13c-.98-.99-2.48-1.23-3.72-.61l-42.89,21.54c-2.78,1.39-5.71-1.58-4.29-4.34l22.04-42.63c.64-1.23.41-2.74-.57-3.73l-33.74-34.13c-2.18-2.21-.26-5.92,2.8-5.42Z"/>
  <g id="BATTALION">
    <path class="cls-3" d="m293.9,918.56l14.66-6.89,3.58,7.6,83.43-39.24-3.58-7.6,14.66-6.89,32,68.05-8.82,24.48-26.06,12.26-16.76-6.04-6.04,16.76-30.59,14.38-24.48-8.82-32-68.05Zm40.96,49.03l11.35,4.39,21.18-9.96,4.22-11.71-12.94-27.51-36.74,17.28,12.94,27.51Zm51.22-24.09l11.53,4.3,16.65-7.83,4.04-11.62-12.94-27.51-32.22,15.15,12.94,27.51Z"/>
    <path class="cls-3" d="m372.25,1064.14l11.95-10.94,4.05,4.43,88.82-39.51-6.08-6.64,11.95-10.93,39.83,43.53-11.95,10.93-6.62-7.23-47.37,84.81,4.19,4.57-11.95,10.93-25.92-28.33,11.95-10.93,5.27,5.75,11.09-20.17-25.78-28.18-20.94,9.4,5.27,5.75-11.95,10.94-25.79-28.18Zm85.05,19.78l23.53-42.13-44.05,19.7,20.52,22.43Z"/>
    <path class="cls-3" d="m551.68,1102.49l12.24-21.11,88.93,51.57-12.24,21.11-14.01-8.13,4.11-7.09-20.42-11.84-46.25,79.76,7.27,4.21-8.13,14.01-34.6-20.07,8.13-14.01,7.27,4.21,46.25-79.76-20.59-11.94-4.11,7.09-13.84-8.03Z"/>
    <path class="cls-3" d="m674.47,1167.52l5.55-23.76,100.1,23.39-5.55,23.76-15.77-3.69,1.87-7.99-22.98-5.37-20.98,89.78,8.18,1.91-3.69,15.78-38.95-9.1,3.69-15.77,8.18,1.91,20.98-89.78-23.18-5.42-1.87,7.99-15.58-3.64Z"/>
    <path class="cls-3" d="m818.17,1294.38l-1.2-16.16,5.98-.44,23.89-94.23-8.98.67-1.2-16.16,58.84-4.37,1.2,16.16-9.77.73,37.34,89.68,6.18-.46,1.2,16.16-38.29,2.84-1.2-16.16,7.78-.58-8.99-21.19-38.09,2.83-5.57,22.27,7.78-.58,1.2,16.16-38.1,2.83Zm68.15-54.59l-18.55-44.55-11.77,46.8,30.32-2.25Z"/>
    <path class="cls-3" d="m995.11,1269.9l-5.79-15.13,7.84-3-32.97-86.1-7.84,3-5.79-15.13,37.17-14.23,5.79,15.13-7.84,3,32.97,86.1,37.92-14.52-2.93-7.66,15.13-5.79,8.73,22.79-82.37,31.54Z"/>
    <path class="cls-3" d="m1128.8,1209.12l-8.9-13.54,7.02-4.61-50.63-77.05-7.02,4.61-8.9-13.54,33.26-21.86,8.9,13.54-7.02,4.61,50.63,77.05,7.02-4.61,8.9,13.54-33.26,21.86Z"/>
    <path class="cls-3" d="m1200.99,1134.74l-63.58-60.56-.63-26.01,37.38-39.25,26.01-.63,63.58,60.56.63,26.01-37.38,39.25-26.01.63Zm23.39-21.36l19.17-20.13-.29-11.88-54.45-51.87-12.02.15-19.17,20.13.43,12.01,54.45,51.87,11.88-.29Z"/>
    <path class="cls-3" d="m1320,1023.19l-14.55-7.12,3.69-7.55-82.82-40.52-3.69,7.55-14.55-7.12,14.15-28.92,100.19-8.65-62.88-30.76-3.69,7.55-14.55-7.12,17.49-35.75,14.55,7.12-3.69,7.55,82.82,40.52,3.69-7.54,14.55,7.12-14.59,29.82-98.14,8.54,61.26,29.97,3.69-7.55,14.55,7.12-17.49,35.75Z"/>
  </g>
  <path id="R_STAR" class="cls-2" d="m1347.21,449.35l-47.36,7.78c-1.37.23-2.73-.46-3.37-1.69l-22.04-42.63c-1.43-2.76-5.55-2.08-6.02.99l-7.23,47.45c-.21,1.37-1.28,2.46-2.65,2.68l-47.36,7.78c-3.06.5-3.69,4.63-.92,6.03l42.89,21.54c1.24.62,1.94,1.97,1.73,3.35l-7.23,47.45c-.47,3.07,3.27,4.95,5.45,2.74l33.74-34.13c.98-.99,2.48-1.23,3.72-.61l42.89,21.54c2.78,1.39,5.71-1.58,4.29-4.34l-22.04-42.63c-.64-1.23-.41-2.74.57-3.73l33.74-34.13c2.18-2.21.26-5.92-2.8-5.42Z"/>
  <g>
    <g>
      <path class="cls-5" d="m642.4,852.67l-38.69-40.51v-183.28l37.1-40.56h121.79l37.1,40.56v181.7l-38.64,42.09h-118.65Zm84.89-52.6l11.43-12.43v-135.7l-12.84-12.55h-49.76l-11.43,12.43v137.37l9.9,10.88h52.7Z"/>
      <path d="m760.83,592.32l34.86,38.11v178.59l-36.4,39.65h-115.19l-36.4-38.11v-180.13l34.86-38.11h118.26m-88.01,211.74h56.23l13.67-14.87v-138.94l-15.21-14.87h-53.15l-13.67,14.87v140.48l12.13,13.33m91.54-219.74h-125.31l-2.38,2.6-34.86,38.11-2.1,2.29v186.44l2.21,2.32,36.4,38.11,2.36,2.47h122.12l2.38-2.59,36.4-39.65,2.11-2.29v-184.81l-2.1-2.29-34.86-38.11-2.38-2.6h0Zm-86.49,59.07h46.38l10.47,10.24v132.45l-9.18,9.99h-49.18l-7.67-8.43v-134.26l9.18-9.99h0Z"/>
    </g>
    <g>
      <polygon class="cls-5" points="822.16 852.67 817.33 847.52 817.33 734.08 849.21 701.29 943.19 701.29 949.95 694.27 949.95 647.09 942 638.88 888.65 638.88 880.7 647.09 880.7 668.24 875.87 673.4 822.16 673.4 817.33 668.24 817.33 626.63 853.09 588.32 976.32 588.32 1013.32 626.59 1013.32 721.43 981.45 754.4 887.44 754.4 880.7 761.27 880.7 799.55 1008.41 799.55 1013.32 804.46 1013.32 847.52 1008.49 852.67 822.16 852.67"/>
      <path d="m974.63,592.32l34.69,35.89v91.6l-29.57,30.59h-93.99l-9.06,9.23v43.92h130.05l2.56,2.56v39.82l-2.56,2.73h-182.86l-2.56-2.73v-110.23l29.57-30.42h93.99l9.06-9.4v-50.42l-10.25-10.6h-56.74l-10.25,10.6v21.19l-2.56,2.73h-50.24l-2.56-2.73v-38.45l33.5-35.89h119.8m3.39-8h-126.67l-2.37,2.54-33.5,35.89-2.15,2.31v44.77l2.16,2.31,2.56,2.73,2.37,2.53h57.18l2.37-2.53,2.56-2.73,2.16-2.31v-21.12l5.64-5.83h49.96l5.64,5.83v43.95l-4.46,4.63h-93.97l-2.36,2.42-29.57,30.42-2.26,2.33v116.64l2.16,2.31,2.56,2.73,2.37,2.53h189.79l2.37-2.53,2.56-2.73,2.16-2.31v-46.3l-2.34-2.34-2.56-2.56-2.34-2.34h-125.37v-32.65l4.42-4.5h94.03l2.36-2.44,29.57-30.59,2.25-2.33v-98.07l-2.25-2.33-34.69-35.89-2.36-2.44h0Z"/>
    </g>
  </g>
  <g>
    <path d="m1658.69,592.32h0m0,0l-26.56,46.28h-410.9v50.28l-24.95,29.74,26.66,29.73v64.94l-31.61,35.38h-124.76l-31.62-35.38v-66.82l24.95-29.73-24.95-29.74v-59.3l31.62-35.38h592.12m-560.5,104.08h61.52l9.91-11.28v-40.85l-9.91-11.1h-61.52l-11.63,12.98v37.26l11.63,12.99m-1.71,111.42h63.23l11.62-12.98v-42.73l-13.33-14.87h-59.81l-11.63,14.87v44.61l9.92,11.1m562.21-223.5h-592.12c-2.28,0-4.45.97-5.96,2.67l-31.62,35.38c-1.31,1.47-2.04,3.36-2.04,5.33v59.3c0,1.88.66,3.7,1.87,5.14l20.64,24.6-20.64,24.59c-1.21,1.44-1.87,3.26-1.87,5.14v66.82c0,1.97.72,3.86,2.04,5.33l31.62,35.38c1.52,1.7,3.69,2.67,5.96,2.67h124.76c2.28,0,4.45-.97,5.97-2.67l31.61-35.38c1.31-1.47,2.03-3.36,2.03-5.33v-64.94c0-1.97-.73-3.87-2.04-5.34l-22.03-24.56,20.49-24.42c1.21-1.44,1.87-3.26,1.87-5.14v-42.28h402.9c2.87,0,5.51-1.53,6.94-4.02l26.46-46.1c.74-1.21,1.17-2.64,1.17-4.16,0-4.41-3.57-7.99-7.99-8h-.01Zm0,16h0,0Zm-556.93,40.85h54.36l5.49,6.15v34.78l-5.53,6.3h-54.32l-7.21-8.05v-31.14l7.2-8.04h0Zm.33,104.07h52.34l8.9,9.93v36.61l-7.2,8.04h-56.07l-5.5-6.15v-38.8l7.53-9.63h0Z"/>
    <path class="cls-4" d="m1221.23,638.6h410.9l26.56-46.28h-592.12l-31.62,35.38v59.3l24.95,29.74-24.95,29.73v66.82l31.62,35.38h124.76l31.61-35.38v-64.94l-26.66-29.73,24.95-29.74v-50.28Zm-134.67,7.55l11.63-12.98h61.52l9.91,11.1v40.85l-9.91,11.28h-61.52l-11.63-12.99v-37.26Zm84.77,148.69l-11.62,12.98h-63.23l-9.92-11.1v-44.61l11.63-14.87h59.81l13.33,14.87v42.73Z"/>
  </g>
  <g>
    <path d="m578.83,592.32l3.24,3.25v29.91c0,2.73-24.72,47.91-74.17,135.52v84.42l-3.42,3.25h-51.09l-3.25-3.25v-87.67c0-3.42,21.42-43.12,64.26-119.11h-117.07l-.04-.04H34.56l-26.56-46.28h570.83m0-8H8c-2.85,0-5.49,1.52-6.92,3.99-1.43,2.47-1.44,5.52-.02,7.99l26.56,46.28c1.43,2.49,4.07,4.02,6.94,4.02h361.97c.26.03.53.04.8.04h103.38c-18.06,32.13-32.02,57.31-41.55,74.97-17.02,31.56-17.02,33.58-17.02,36.14v87.67c0,2.12.84,4.16,2.34,5.66l3.25,3.25c1.5,1.5,3.54,2.34,5.66,2.34h51.09c2.05,0,4.02-.79,5.51-2.2l3.42-3.25c1.59-1.51,2.49-3.61,2.49-5.8v-82.32c24.09-42.69,42.47-75.6,54.65-97.85,19.52-35.67,19.52-37.13,19.52-39.77v-29.91c0-2.12-.84-4.15-2.33-5.65l-3.24-3.25c-1.5-1.51-3.54-2.35-5.67-2.35h0Z"/>
    <path class="cls-4" d="m582.07,595.57v29.91c0,2.73-24.72,47.91-74.17,135.52v84.42l-3.42,3.25h-51.09l-3.25-3.25v-87.67c0-3.42,21.42-43.12,64.26-119.11h-117.07l-.04-.04H34.56l-26.56-46.28h570.83l3.24,3.25Z"/>
  </g>
  <g>
    <path class="cls-5" d="m155.84,852.67c-1.43,0-2.75-.76-3.46-2l-27.17-47.06c-.71-1.24-.71-2.76,0-4,.71-1.24,2.03-2,3.46-2h295.41c2.21,0,4,1.79,4,4v47.06c0,2.21-1.79,4-4,4H155.84Z"/>
    <path d="m424.08,801.61v47.06H155.84l-27.17-47.06h295.41m0-8H128.67c-2.86,0-5.5,1.52-6.93,4-1.43,2.48-1.43,5.52,0,8l27.17,47.06c1.43,2.48,4.07,4,6.93,4h268.24c4.42,0,8-3.58,8-8v-47.06c0-4.42-3.58-8-8-8h0Z"/>
  </g>
  <g>
    <path class="cls-6" d="m115.97,783.6c-1.43,0-2.75-.76-3.46-2l-27.72-48c-.71-1.24-.71-2.76,0-4,.71-1.24,2.04-2,3.46-2h335.83c2.21,0,4,1.79,4,4v48c0,2.21-1.79,4-4,4H115.97Z"/>
    <path d="m424.08,731.6v48H115.97l-27.72-48h335.83m0-8H88.25c-2.86,0-5.5,1.52-6.93,4-1.43,2.48-1.43,5.53,0,8l27.72,48c1.43,2.47,4.07,4,6.93,4h308.11c4.42,0,8-3.58,8-8v-48c0-4.42-3.58-8-8-8h0Z"/>
  </g>
  <g>
    <path class="cls-6" d="m74.97,712.6c-1.43,0-2.75-.76-3.46-2l-27.13-47c-.71-1.24-.71-2.76,0-4,.71-1.24,2.03-2,3.46-2h376.24c2.21,0,4,1.79,4,4v47c0,2.21-1.79,4-4,4H74.97Z"/>
    <path d="m424.08,661.6v47H74.97l-27.13-47h376.24m0-8H47.84c-2.86,0-5.5,1.52-6.93,4-1.43,2.48-1.43,5.52,0,8l27.13,47c1.43,2.48,4.07,4,6.93,4h349.11c4.42,0,8-3.58,8-8v-47c0-4.42-3.58-8-8-8h0Z"/>
  </g>
  <g>
    <path class="cls-6" d="m1248.08,712.6c-2.21,0-4-1.79-4-4v-47c0-2.21,1.79-4,4-4h370.77c1.43,0,2.75.76,3.46,2,.71,1.24.71,2.76,0,4l-27.13,47c-.71,1.24-2.04,2-3.46,2h-343.64Z"/>
    <path d="m1618.85,661.6l-27.13,47h-343.64v-47h370.77m0-8h-370.77c-4.42,0-8,3.58-8,8v47c0,4.42,3.58,8,8,8h343.64c2.86,0,5.5-1.53,6.93-4l27.13-47c1.43-2.48,1.43-5.52,0-8-1.43-2.48-4.07-4-6.93-4h0Zm0,16h0,0Z"/>
  </g>
  <g>
    <path class="cls-6" d="m1248.08,783.6c-2.21,0-4-1.79-4-4v-48c0-2.21,1.79-4,4-4h330.36c1.43,0,2.75.76,3.46,2,.71,1.24.71,2.76,0,4l-27.72,48c-.71,1.24-2.04,2-3.46,2h-302.64Z"/>
    <path d="m1578.44,731.6l-27.72,48h-302.64v-48h330.36m0-8h-330.36c-4.42,0-8,3.58-8,8v48c0,4.42,3.58,8,8,8h302.64c2.86,0,5.5-1.52,6.93-4l27.72-48c1.43-2.48,1.43-5.52,0-8-1.43-2.48-4.07-4-6.93-4h0Zm0,16h0,0Z"/>
  </g>
  <g>
    <path class="cls-5" d="m1248.08,852.67c-2.21,0-4-1.79-4-4v-47.06c0-2.21,1.79-4,4-4h289.94c1.43,0,2.75.76,3.46,2,.71,1.24.71,2.76,0,4l-27.17,47.06c-.71,1.24-2.04,2-3.46,2h-262.77Z"/>
    <path d="m1538.02,801.61l-27.17,47.06h-262.77v-47.06h289.94m0-8h-289.94c-4.42,0-8,3.58-8,8v47.06c0,4.42,3.58,8,8,8h262.77c2.86,0,5.5-1.52,6.93-4l27.17-47.06c1.43-2.48,1.43-5.52,0-8-1.43-2.48-4.07-4-6.93-4h0Zm0,16h0,0Z"/>
  </g>
</svg>